<svg xmlns="http://www.w3.org/2000/svg" viewBox="0 0 1280 640" width="1280" height="640">
  <defs>
    <linearGradient id="banner-bg" x1="0%" y1="0%" x2="100%" y2="100%">
      <stop offset="0%" style="stop-color:#35495e;stop-opacity:1" />
      <stop offset="100%" style="stop-color:#1a252f;stop-opacity:1" />
    </linearGradient>
  </defs>

  <!-- Background -->
  <rect width="1280" height="640" fill="url(#banner-bg)"/>

  <!-- Decorative elements -->
  <circle cx="200" cy="150" r="120" fill="#42b883" opacity="0.06"/>
  <circle cx="1150" cy="500" r="100" fill="#42b883" opacity="0.06"/>

  <!-- Top accent bar -->
  <rect x="0" y="0" width="1280" height="8" fill="#42b883"/>

  <!-- Vuefrag badge -->
  <g transform="translate(80, 80)">
    <rect width="140" height="50" rx="8" fill="#42b883"/>
    <text x="70" y="33" text-anchor="middle" font-family="system-ui, -apple-system, sans-serif" font-size="22" font-weight="700" fill="white">Vuefrag</text>
  </g>

  <!-- Package name -->
  <text x="80" y="280" font-family="system-ui, -apple-system, sans-serif" font-size="72" font-weight="700" fill="white">vue-to-refs</text>

  <!-- Description -->
  <text x="80" y="360" font-family="system-ui, -apple-system, sans-serif" font-size="32" fill="#94a3b8">Vue 3 extended toRefs accepting refs of objects with replaceRef option</text>

  <!-- Install command -->
  <g transform="translate(80, 420)">
    <rect width="398.4" height="60" rx="8" fill="#0f172a"/>
    <text x="20" y="40" font-family="ui-monospace, monospace" font-size="24" fill="#94a3b8">npm install</text>
    <text x="200" y="40" font-family="ui-monospace, monospace" font-size="24" fill="#42b883">vue-to-refs</text>
  </g>

  <!-- Category badge -->
  <g transform="translate(80, 520)">
    <rect width="172" height="40" rx="20" fill="#42b883" opacity="0.2"/>
    <text x="86" y="27" text-anchor="middle" font-family="system-ui, -apple-system, sans-serif" font-size="18" fill="#42b883">Reactivity</text>
  </g>

  <!-- Category icon (top right corner) -->
  <g>
    <circle cx="1080" cy="150" r="60" fill="none" stroke="#42b883" stroke-width="15"/><circle cx="1080" cy="150" r="25" fill="#42b883"/><path d="M1000 150h-20M1160 150h20M1080 70v-20M1080 230v20" stroke="#42b883" stroke-width="10" stroke-linecap="round"/>
  </g>
</svg>